<svg width="24" height="24" viewBox="0 0 24 24" fill="none" xmlns="http://www.w3.org/2000/svg">
<path d="M6.61157 10.7812C8.11157 13.6875 10.3147 15.8906 13.2209 17.3906L15.4241 15.1875C15.7366 14.875 16.0803 14.7969 16.4553 14.9531C17.5803 15.3281 18.7678 15.5156 20.0178 15.5156C20.2991 15.5156 20.5334 15.6094 20.7209 15.7969C20.9084 15.9844 21.0022 16.2188 21.0022 16.5V20.0156C21.0022 20.2969 20.9084 20.5312 20.7209 20.7188C20.5334 20.9062 20.2991 21 20.0178 21C15.3303 21 11.3147 19.3438 7.97095 16.0312C4.65845 12.6875 3.0022 8.67188 3.0022 3.98438C3.0022 3.70312 3.09595 3.46875 3.28345 3.28125C3.47095 3.09375 3.70532 3 3.98657 3H7.5022C7.78345 3 8.01782 3.09375 8.20532 3.28125C8.39282 3.46875 8.48657 3.70312 8.48657 3.98438C8.48657 5.23438 8.67407 6.42188 9.04907 7.54688C9.17407 7.95312 9.09595 8.29688 8.8147 8.57812L6.61157 10.7812Z" fill="#00A7CC"/>
</svg>
